# xmcd
#
# Track frame offsets:
# 150
# 18276
# 34566
# 45233
# 58445
# 73023
# 96398
# 111532
# 133214
# 144732
# 159392
#
# Disc length: 2341 seconds
#
# Revision: 0
# Processed by: cddbd v1.5.2PL0 Copyright (c) Steve Scherf et al.
# Submitted via: Axialis_AX_CDPlayer 2.6
#
DISCID=a009230b
DTITLE=Steve Earle - Townes (Limited Edition) [CD2 of 2)
DYEAR=1900
DGENRE=
TTITLE0=Pancho and Lefty (Solo)
TTITLE1=Where I Lead Me (Solo)
TTITLE2=Lungs (Solo)
TTITLE3=No Place To Fall (Solo)
TTITLE4=Loretta (Solo)
TTITLE5=Brand New Companion (Solo)
TTITLE6=Rake (Solo)
TTITLE7=Marie (Solo)
TTITLE8=Mr. Mudd And Mr. Gold (Solo)
TTITLE9=(Quicksilver Daydreams Of) Maria (Solo)
TTITLE10=To Live Is To Fly (Solo)
EXTD=www.steveearle.net
EXTT0=
EXTT1=
EXTT2=
EXTT3=
EXTT4=
EXTT5=
EXTT6=
EXTT7=
EXTT8=
EXTT9=
EXTT10=
PLAYORDER=
